<svg xmlns="http://www.w3.org/2000/svg" width="24" height="24" fill="none" viewBox="0 0 24 24" id="auto-responder">
  <path fill="#000" fill-rule="evenodd" d="M6 2.5C4.067 2.5 2.5 4.067 2.5 6V14C2.5 15.933 4.067 17.5 6 17.5C6.27614 17.5 6.5 17.7239 6.5 18L6.5 21.0657L11.7226 17.584C11.8048 17.5292 11.9013 17.5 12 17.5H18C19.933 17.5 21.5 15.933 21.5 14V6C21.5 4.067 19.933 2.5 18 2.5H6ZM1.5 6C1.5 3.51472 3.51472 1.5 6 1.5H18C20.4853 1.5 22.5 3.51472 22.5 6V14C22.5 16.4853 20.4853 18.5 18 18.5H12.1514L6.27735 22.416C6.12392 22.5183 5.92665 22.5278 5.76407 22.4408C5.60149 22.3538 5.5 22.1844 5.5 22L5.5 18.4725C3.25002 18.2238 1.5 16.3163 1.5 14V6Z" clip-rule="evenodd"></path>
  <path fill="#000" fill-rule="evenodd" d="M10.3536 5.64645C10.5488 5.84171 10.5488 6.15829 10.3536 6.35355L8.70711 8L10.3536 9.64645C10.5488 9.84171 10.5488 10.1583 10.3536 10.3536C10.1583 10.5488 9.84171 10.5488 9.64645 10.3536L7.64645 8.35355C7.45118 8.15829 7.45118 7.84171 7.64645 7.64645L9.64645 5.64645C9.84171 5.45118 10.1583 5.45118 10.3536 5.64645Z" clip-rule="evenodd"></path>
  <path fill="#000" fill-rule="evenodd" d="M7.5 8C7.5 7.72386 7.72386 7.5 8 7.5H13C14.933 7.5 16.5 9.067 16.5 11C16.5 12.933 14.933 14.5 13 14.5H10C9.72386 14.5 9.5 14.2761 9.5 14C9.5 13.7239 9.72386 13.5 10 13.5H13C14.3807 13.5 15.5 12.3807 15.5 11C15.5 9.61929 14.3807 8.5 13 8.5H8C7.72386 8.5 7.5 8.27614 7.5 8Z" clip-rule="evenodd"></path>
</svg>
