<svg xmlns="http://www.w3.org/2000/svg" width="96" height="96" fill="none" viewBox="0 0 96 96" id="fax">
  <path fill="url(#paint0_linear_714_23238)" fill-rule="evenodd" d="M25.5 13C25.5 9.96243 27.9624 7.5 31 7.5H65C68.0376 7.5 70.5 9.96243 70.5 13V28.5H84C87.5899 28.5 90.5 31.4101 90.5 35V64C90.5 67.5899 87.5899 70.5 84 70.5H69.6432L71.0754 82.3395C71.4717 85.6151 68.9147 88.5 65.6152 88.5H30.3848C27.0853 88.5 24.5283 85.6151 24.9246 82.3395L26.3568 70.5H12C8.41014 70.5 5.5 67.5898 5.5 64V35C5.5 31.4101 8.41015 28.5 12 28.5H25.5V13ZM84 65.5H69.0384L67.8287 55.5H75C76.3807 55.5 77.5 54.3807 77.5 53C77.5 51.6193 76.3807 50.5 75 50.5H21C19.6193 50.5 18.5 51.6193 18.5 53C18.5 54.3807 19.6193 55.5 21 55.5H28.1713L26.9616 65.5H12C11.1716 65.5 10.5 64.8284 10.5 64V35C10.5 34.1716 11.1716 33.5 12 33.5H25.5H28H68H70.5H84C84.8284 33.5 85.5 34.1716 85.5 35V64C85.5 64.8284 84.8284 65.5 84 65.5ZM33.2077 55.5H62.7923L66.1116 82.94C66.1476 83.2377 65.9152 83.5 65.6152 83.5H30.3848C30.0848 83.5 29.8524 83.2377 29.8884 82.94L33.2077 55.5ZM65.5 13V28.5H30.5V13C30.5 12.7239 30.7239 12.5 31 12.5H65C65.2761 12.5 65.5 12.7239 65.5 13ZM18.5 43C18.5 41.6193 19.6193 40.5 21 40.5H35C36.3807 40.5 37.5 41.6193 37.5 43C37.5 44.3807 36.3807 45.5 35 45.5H21C19.6193 45.5 18.5 44.3807 18.5 43ZM75 46C76.6569 46 78 44.6569 78 43C78 41.3432 76.6569 40 75 40C73.3431 40 72 41.3432 72 43C72 44.6569 73.3431 46 75 46ZM39 59.5C37.6193 59.5 36.5 60.6193 36.5 62C36.5 63.3807 37.6193 64.5 39 64.5H57C58.3807 64.5 59.5 63.3807 59.5 62C59.5 60.6193 58.3807 59.5 57 59.5H39ZM35.5 70C35.5 68.6193 36.6193 67.5 38 67.5H58C59.3807 67.5 60.5 68.6193 60.5 70C60.5 71.3807 59.3807 72.5 58 72.5H38C36.6193 72.5 35.5 71.3807 35.5 70ZM36 74.5C34.6193 74.5 33.5 75.6193 33.5 77C33.5 78.3807 34.6193 79.5 36 79.5H60C61.3807 79.5 62.5 78.3807 62.5 77C62.5 75.6193 61.3807 74.5 60 74.5H36Z" clip-rule="evenodd"></path>
  <defs>
    <linearGradient id="paint0_linear_714_23238" x1="48" x2="48" y1="7.5" y2="88.5" gradientUnits="userSpaceOnUse">
      <stop stop-color="#041034"></stop>
      <stop offset="1" stop-color="#516EC4"></stop>
    </linearGradient>
  </defs>
</svg>
