<svg xmlns="http://www.w3.org/2000/svg" width="32" height="32" id="sale">
  <g transform="translate(0 -1020.362)">
    <path fill="#fc0" d="M0 1029.044h21.467l5.855 7.318-5.855 7.319H0z"></path>
    <path fill="#3477e0" fill-rule="evenodd" d="M1.95 1030.993h-.292v.532h.586v-.24h.195v-.586H1.95zm1.074.293h1.171v-.586h-1.17zm1.757 0h1.17v-.586h-1.17zm1.756 0h1.171v-.586h-1.17zm1.756 0h1.171v-.586h-1.17zm1.757 0h1.17v-.586h-1.17zm1.756 0h1.171v-.586h-1.17zm1.757 0h1.17v-.586h-1.17zm1.756 0h1.171v-.586h-1.17zm1.757 0h1.17v-.586h-1.17zm1.756 0h1.17v-.586h-1.17zm1.483-.035.712.926.464-.35-.707-.933zm-18.657 2.03h.586v-1.172h-.586zm19.726-.635.712.932.463-.356-.712-.932zm1.063 1.395.713.932.463-.356-.707-.932zm-20.789.996h.586v-1.171h-.586zm21.858.4.712.932.464-.356-.713-.932zm-21.858 1.356h.586v-1.17h-.586zm21.765.615.464.356.712-.932-.469-.356zm-21.765 1.142h.586v-1.171h-.586zm20.697.253.468.356.707-.932-.463-.356zm-20.697 1.503h.586v-1.171h-.586zm19.633-.107.463.356.713-.932-.469-.351zm-1.034 1.351.175.137v.337h.205l.088-.118.673-.888-.463-.35zm-18.599.18v.292h.625v-.585h-.04v-.546h-.585zm1.21.292H4.04v-.585h-1.17zm1.757 0h1.17v-.585h-1.17zm1.756 0h1.17v-.585h-1.17zm1.756 0h1.171v-.585h-1.17zm1.757 0h1.17v-.585h-1.17zm1.756 0h1.171v-.585h-1.17zm1.757 0h1.17v-.585h-1.17zm1.756 0h1.171v-.585h-1.171zm1.756 0h1.171v-.585h-1.17zm1.757 0h1.17v-.585h-1.17z" color="#000" font-family="sans-serif" font-weight="400" overflow="visible" style="line-height:normal;text-indent:0;text-align:start;text-decoration-line:none;text-decoration-style:solid;text-decoration-color:#000;text-transform:none;block-progression:tb;isolation:auto;mix-blend-mode:normal"></path>
    <circle cx="21.467" cy="1036.362" r=".976" fill="#f2f2f2"></circle>
    <path fill="#3477e0" d="M7.043 13.092c-.87 0-1.314.52-1.314 1.43 0 1.624 1.746 1.844 1.746 3.013 0 .406-.179.553-.463.553-.285 0-.463-.147-.463-.553v-.406h-.846v.35c0 .91.455 1.43 1.332 1.43s1.332-.52 1.332-1.43c0-1.625-1.746-1.845-1.746-3.014 0-.406.163-.56.447-.56.285 0 .448.154.448.56v.236h.843v-.18c0-.91-.447-1.43-1.316-1.43zm2.502.066-.908 5.686h.82l.154-1.033h1.096l.154 1.033h.903l-.91-5.686h-1.31zm2.627 0v5.686h2.363v-.813h-1.47v-4.873h-.893zm2.76 0v5.686h2.435v-.813h-1.543v-1.666h1.227v-.812h-1.227V13.97h1.543v-.813h-2.435zm-4.778 1.006.432 2.875h-.861l.43-2.875z" font-family="Bebas Neue" font-size="8.122" font-weight="700" letter-spacing="0" style="line-height:125%;-inkscape-font-specification:&quot;Bebas Neue Bold&quot;" transform="translate(0 1020.362)" word-spacing="0"></path>
    <path fill="#3477e0" fill-rule="evenodd" d="m24.608 1032.96.615.792s.487-.087.62.147c.133.232.015.37 0 .42-.03.106-.29.447-.727.728a4.987 4.987 0 0 1-1.556.644c-.542.117-1.04.09-1.298-.025-.761-.338-1.268.803-.508 1.141.645.287 1.367.255 2.07.102a6.096 6.096 0 0 0 1.965-.814c.576-.37 1.072-.797 1.254-1.435.091-.319.065-.71-.122-1.024-.546-.948-1.4-.939-2.148-.783z" color="#000" font-family="sans-serif" font-weight="400" overflow="visible" style="line-height:normal;text-indent:0;text-align:start;text-decoration-line:none;text-decoration-style:solid;text-decoration-color:#000;text-transform:none;block-progression:tb;isolation:auto;mix-blend-mode:normal"></path>
    <path fill="#3477e0" fill-rule="evenodd" d="M28.887 1033.408c-1.008 0-2.361.18-2.361.18a.625.625 0 1 0 .156 1.24s1.353-.17 2.205-.17c.739 0 2.289.404 2.289.404a.625.625 0 1 0 .341-1.2s-1.507-.454-2.63-.454z" color="#000" font-family="sans-serif" font-weight="400" overflow="visible" style="line-height:normal;text-indent:0;text-align:start;text-decoration-line:none;text-decoration-style:solid;text-decoration-color:#000;text-transform:none;block-progression:tb;isolation:auto;mix-blend-mode:normal"></path>
  </g>
</svg>
