<svg xmlns="http://www.w3.org/2000/svg" viewBox="0 0 512 512" id="crown">
  <path d="M85,301.5A22.5,22.5,0,1,0,107.5,324,22.52,22.52,0,0,0,85,301.5Zm0,30a7.5,7.5,0,1,1,7.5-7.5A7.5,7.5,0,0,1,85,331.5Zm55.19-100.67a7.5,7.5,0,1,0-7.5-7.5A7.5,7.5,0,0,0,140.19,230.83ZM43.13,236.7a7.5,7.5,0,1,0,7.5,7.5A7.5,7.5,0,0,0,43.13,236.7Zm425.74,0a7.5,7.5,0,1,0,7.5,7.5A7.5,7.5,0,0,0,468.87,236.7Zm43-34.16a7.5,7.5,0,0,0-10.24-8.5l-67.76,28.55a7.49,7.49,0,0,0-3.6,10.62l.21.36a6.44,6.44,0,0,0,.83,1.18,16.5,16.5,0,1,1-25,0,8.08,8.08,0,0,0,.83-1.18l.21-.36a7.56,7.56,0,0,0,.87-5L394.69,150.8a7.49,7.49,0,0,0-13.54-3l-45.56,65.41a7.52,7.52,0,0,0-1,6.6,23.85,23.85,0,0,1,1,10.37c-1.52,11.9-12.29,18.4-13.51,19.1a29,29,0,0,1-30.58-1.39c-12.33-8.72-11.94-24.1-11.86-25.83.62-12.51,9.24-23.93,22-29.1a7.5,7.5,0,0,0,4.19-9.62L263.27,71.82a7.51,7.51,0,0,0-7-4.82h-.52a7.51,7.51,0,0,0-7,4.82L206.15,183.34a7.5,7.5,0,0,0,4.19,9.62c12.72,5.17,21.34,16.59,22,29.1.08,1.73.47,17.11-11.86,25.83a29,29,0,0,1-30.58,1.39c-1.22-.7-12-7.2-13.51-19.1a23.85,23.85,0,0,1,1-10.37,7.52,7.52,0,0,0-1-6.6L130.85,147.8a7.49,7.49,0,0,0-13.54,3l-13.45,77.42a7.56,7.56,0,0,0,.87,5l.21.36a8.08,8.08,0,0,0,.83,1.18,16.5,16.5,0,1,1-25,0,6.44,6.44,0,0,0,.83-1.18l.21-.36a7.49,7.49,0,0,0-3.6-10.62L10.41,194a7.5,7.5,0,0,0-10.24,8.5l19,87.24,17.2,95.45A30,30,0,0,0,40,445H472a30,30,0,0,0,3.68-59.77l17.2-95.45ZM487,415a15,15,0,0,1-15,15H40a15,15,0,0,1,0-30H472A15,15,0,0,1,487,415Zm-8.86-128-17.66,98h-409L33.86,287c0-.08,0-.17,0-.26L17.9,213.47,64.33,233a31.49,31.49,0,1,0,54.86-5.41L129,171.34l33.14,47.58a38.39,38.39,0,0,0-.63,13.16c2.39,18.7,17.85,28.45,20.93,30.21a43.58,43.58,0,0,0,46.69-2.16c18.48-13.06,18.39-34.61,18.19-38.8-.78-16-10.24-30.66-24.68-39L256,94.84l33.4,87.46c-14.44,8.37-23.9,23-24.68,39-.2,4.19-.29,25.74,18.19,38.8a43.58,43.58,0,0,0,46.69,2.16c3.08-1.76,18.54-11.51,20.93-30.21a38.39,38.39,0,0,0-.63-13.16L383,171.34l9.77,56.28A31.51,31.51,0,1,0,447.67,233l46.43-19.56-15.91,73.25C478.17,286.81,478.15,286.9,478.14,287ZM427,301.5A22.5,22.5,0,1,0,449.5,324,22.52,22.52,0,0,0,427,301.5Zm0,30a7.5,7.5,0,1,1,7.5-7.5A7.5,7.5,0,0,1,427,331.5ZM256,284a40,40,0,1,0,40,40A40,40,0,0,0,256,284Zm0,65a25,25,0,1,1,25-25A25,25,0,0,1,256,349ZM371.81,230.83a7.5,7.5,0,1,0-7.5-7.5A7.5,7.5,0,0,0,371.81,230.83ZM352,285.65a7.51,7.51,0,0,0-11.92,0l-25.81,33.8a7.5,7.5,0,0,0,0,9.1L340,362.35a7.51,7.51,0,0,0,11.92,0l25.81-33.8a7.5,7.5,0,0,0,0-9.1Zm-6,59.79L329.63,324,346,302.56,362.37,324ZM256,317a7.5,7.5,0,1,0,7.5,7.5A7.5,7.5,0,0,0,256,317Zm-84-31.35a7.51,7.51,0,0,0-11.92,0l-25.81,33.8a7.5,7.5,0,0,0,0,9.1L160,362.35a7.51,7.51,0,0,0,11.92,0l25.81-33.8a7.5,7.5,0,0,0,0-9.1Zm-6,59.79L149.63,324,166,302.56,182.37,324ZM256,178a7.5,7.5,0,1,0-7.5-7.5A7.5,7.5,0,0,0,256,178Z"></path>
</svg>
