<svg xmlns="http://www.w3.org/2000/svg" width="32" height="32" id="sofa">
  <path fill="#f05542" d="M5.256 24.204V4.097A4.076 4.076 0 0 1 9.334 0h13.6a4.076 4.076 0 0 1 4.078 4.097v20.107z"></path>
  <path fill="#f05542" d="M29.023 20.733v7.985c0 .664-.588 1.195-1.347 1.195H4.573c-.74 0-1.347-.53-1.347-1.195V20.77z"></path>
  <path fill="#f05542" d="M3.53 19.594a3.128 3.128 0 0 1-2.504-3.47c.227-1.632 1.669-2.827 3.32-2.713a3.149 3.149 0 0 1 2.94 3.13v13.05z"></path>
  <path fill="#f17f53" d="M6.773 20.486h18.456v3.035H6.773z"></path>
  <path fill="#34485c" d="M5.199 29.818h2.086v2.068H5.2zm19.69.095h2.086V32h-2.087z"></path>
  <path fill="#f17f53" d="M10.89 5.045a.526.526 0 0 1-.513.531.53.53 0 0 1-.531-.53c0-.285.228-.513.531-.513a.51.51 0 0 1 .512.512zm5.709 0a.53.53 0 0 1-.531.531.526.526 0 0 1-.512-.53.51.51 0 0 1 .512-.513c.303 0 .53.228.53.512zm5.71 0a.543.543 0 0 1-.532.531.526.526 0 0 1-.512-.53.51.51 0 0 1 .512-.513c.285 0 .531.228.531.512zM10.888 9.2a.51.51 0 0 1-.512.513.515.515 0 0 1-.531-.513c0-.284.228-.512.531-.512a.51.51 0 0 1 .512.512zm5.71 0a.514.514 0 0 1-.531.513.51.51 0 0 1-.512-.513.51.51 0 0 1 .512-.512c.303 0 .53.228.53.512zm5.71 0a.526.526 0 0 1-.532.513.51.51 0 0 1-.512-.513.51.51 0 0 1 .512-.512c.285 0 .531.228.531.512zm-11.42 4.136a.526.526 0 0 1-.512.53.53.53 0 0 1-.531-.53c0-.285.228-.512.531-.512a.51.51 0 0 1 .512.512zm5.71 0a.53.53 0 0 1-.531.53.526.526 0 0 1-.512-.53.51.51 0 0 1 .512-.512c.303 0 .53.227.53.512zm5.71 0a.543.543 0 0 1-.532.53.526.526 0 0 1-.512-.53.51.51 0 0 1 .512-.512c.285 0 .531.227.531.512zm-11.42 4.154a.51.51 0 0 1-.512.512.515.515 0 0 1-.531-.512c0-.285.228-.512.531-.512a.51.51 0 0 1 .512.512zm5.71 0a.514.514 0 0 1-.531.512.51.51 0 0 1-.512-.512.51.51 0 0 1 .512-.512c.303 0 .53.227.53.512zm5.71 0a.526.526 0 0 1-.532.512.51.51 0 0 1-.512-.512.51.51 0 0 1 .512-.512c.285 0 .531.227.531.512zM13.487 7.132a.527.527 0 0 1-.531.512.51.51 0 0 1-.512-.512c0-.284.227-.531.512-.531.284 0 .53.247.53.531zm6.222 0a.51.51 0 0 1-.513.512.515.515 0 0 1-.53-.512.53.53 0 0 1 .53-.531c.285 0 .513.247.513.531zm-6.222 4.135a.526.526 0 0 1-.531.512.51.51 0 0 1-.512-.512.51.51 0 0 1 .512-.512c.284 0 .53.228.53.512zm6.222 0a.51.51 0 0 1-.513.512.515.515 0 0 1-.53-.512c0-.284.227-.512.53-.512a.51.51 0 0 1 .513.512zm-6.222 4.154a.527.527 0 0 1-.531.512.51.51 0 0 1-.512-.512c0-.284.227-.53.512-.53.284 0 .53.246.53.53zm6.222 0a.51.51 0 0 1-.513.512.515.515 0 0 1-.53-.512.53.53 0 0 1 .53-.53c.285 0 .513.246.513.53z"></path>
  <path fill="#f05542" d="M7.285 19.348v10.565h-2.75c-.721 0-1.31-.607-1.31-1.365v-9.162zm21.454.246a3.13 3.13 0 0 0 2.485-3.47c-.228-1.632-1.67-2.827-3.32-2.713a3.132 3.132 0 0 0-2.921 3.13v13.05z"></path>
  <path fill="#f05542" d="M24.983 19.348v10.565h2.731c.74 0 1.31-.607 1.31-1.365v-9.162z"></path>
  <path fill="#f17f53" d="M5.256 13.07v.53a2.89 2.89 0 0 1 1.764 2.656v7.265h.512V16.256c0-1.46-.949-2.732-2.276-3.187zm21.756 0v.53a2.878 2.878 0 0 0-1.783 2.656v7.265h-.493V16.256c0-1.46.93-2.732 2.276-3.187z"></path>
</svg>
